# xmcd
#
# Track frame offsets:
#	150
#	22747
#	37715
#	59767
#	77477
#	100955
#	116462
#	138667
#	158777
#	177155
#
# Disc length: 2712 seconds
#
# Revision: 1
# Processed by: cddbd v1.5.1PL0 Copyright (c) Steve Scherf et al.
# Submitted via: audiograbber 1.83.01
#
DISCID=740a960a
DTITLE=Nükhet Duru - Mühür
DYEAR=1997
DGENRE=
TTITLE0=Yasamak
TTITLE1=Bir Mendil
TTITLE2=Kolay Kolay
TTITLE3=Gümüs Göl
TTITLE4=Halden Hale
TTITLE5=Romans
TTITLE6=Biz Göcmüsüz
TTITLE7=Topragim
TTITLE8=Aglamam
TTITLE9=Kapi Esiginde
EXTD=
EXTT0=
EXTT1=
EXTT2=
EXTT3=
EXTT4=
EXTT5=
EXTT6=
EXTT7=
EXTT8=
EXTT9=
PLAYORDER=
